# xmcd CD database file
#
# Track frame offsets:
#	150
#	14794
#	35800
#	55852
#	75702
#	87735
#	105267
#	127821
#	152465
#	171825
#	199875
#	226295
#	251106
#	261417
#	282585
#	304268
#
# Disc length: 4357 seconds
#
# Revision: 0
# Processed by: cddbd v1.5.2PL0 Copyright (c) Steve Scherf et al.
# Submitted via: CDex 1.70beta2
#
DISCID=e2110310
DTITLE=Blue Wonder Jazzband - Blue Wonder Jazzband spielt Ellington and Morton
DYEAR=2002
DGENRE=Jazz
TTITLE0=Grandpa's Spells
TTITLE1=Kansas City Stomp
TTITLE2=Sidewalk Blues
TTITLE3=The Chant
TTITLE4=Original Jelly Roll Blues
TTITLE5=Cannon Ball Blues
TTITLE6=Blak Bottom Stomp
TTITLE7=East St. Louis Toodle-Oo
TTITLE8=The Creeper
TTITLE9=Black And Tan Fantasie
TTITLE10=Jungle Nights In Harlem
TTITLE11=The Mooche
TTITLE12=Birmingham Breakdown
TTITLE13=Caravan
TTITLE14=Echoes Of Harlem
TTITLE15=Rockin' In Rhythm
EXTD=YEAR: 2002
EXTT0=
EXTT1=
EXTT2=
EXTT3=
EXTT4=
EXTT5=
EXTT6=
EXTT7=
EXTT8=
EXTT9=
EXTT10=
EXTT11=
EXTT12=
EXTT13=
EXTT14=
EXTT15=
PLAYORDER=
